# xmcd
# 
# Track frame offsets:
#     150
#     23787
#     60135
#     118265
#     139412
#     162952
#     185365
#     200677
#     231062
#     257722
# 
# Disc length: 4353
# 
# Revision: 1
# Processed by: cddbd v1.5.2PL0 Copyright (c) Steve Scherf et al.
# Submitted via: fre:ac v1.0.17
# 
DISCID=8810ff0a
DTITLE=Blues Traveler - Live From The Fall [CD1]
DYEAR=1996
DGENRE=Rock
TTITLE0=Love And Greed 
TTITLE1=Mulling It Over 
TTITLE2=Closing Down The Park 
TTITLE3=Regarding Steven 
TTITLE4=New York Prophesie
TTITLE5=100 Years 
TTITLE6=Crash Burn
TTITLE7=Gina 
TTITLE8=But Anyway 
TTITLE9=Mountain Cry
EXTD=
EXTT0=
EXTT1=
EXTT2=
EXTT3=
EXTT4=
EXTT5=
EXTT6=
EXTT7=
EXTT8=
EXTT9=
PLAYORDER=
